<svg xmlns="http://www.w3.org/2000/svg" viewBox="0 0 51.33 56.42"><title>bus</title><g id="Layer_2" data-name="Layer 2"><g id="Layer_1-2" data-name="Layer 1"><path d="M44.54,51.54v2.92a1.79,1.79,0,0,1-1.54,2H39.17a1.8,1.8,0,0,1-1.55-2V51.54Z" style="fill:#737373"/><path d="M14.08,51.54v2.92a1.79,1.79,0,0,1-1.54,2H8.71a1.79,1.79,0,0,1-1.54-2V51.54Z" style="fill:#737373"/><path d="M50.71,4.76h0S48.17,0,25.67,0,.61,4.76.61,4.76h0A2.8,2.8,0,0,0,0,6.5V46.83a2.85,2.85,0,0,0,2.83,2.84H48.5a2.84,2.84,0,0,0,2.83-2.84V6.5A2.8,2.8,0,0,0,50.71,4.76ZM10.62,43.42A3.46,3.46,0,1,1,14.08,40,3.46,3.46,0,0,1,10.62,43.42Zm30.5,0A3.46,3.46,0,1,1,44.58,40,3.46,3.46,0,0,1,41.12,43.42ZM47,29.67a1.42,1.42,0,0,1-1.42,1.41H5.75a1.42,1.42,0,0,1-1.42-1.41V9.26A1.42,1.42,0,0,1,5.75,7.85H45.58A1.42,1.42,0,0,1,47,9.26Z" style="fill:#737373"/></g></g></svg>