<svg xmlns="http://www.w3.org/2000/svg" viewBox="0 0 46.77 47.26"><title>metro-love</title><g id="Layer_2" data-name="Layer 2"><g id="Layer_2-2" data-name="Layer 2"><path d="M43.94,47.25a2.83,2.83,0,0,0,2.83-2.83V4.09a2.85,2.85,0,0,0-.62-1.75h0S43.88.28,25,0V0H23C3,.19.61,2.35.61,2.35h0A2.8,2.8,0,0,0,0,4.09V44.42a2.85,2.85,0,0,0,2.83,2.84H27.2M18.45,2.52h9.87a.41.41,0,1,1,0,.81H18.45a.41.41,0,1,1,0-.81ZM7.12,43.25a2.8,2.8,0,1,1,2.8-2.79A2.79,2.79,0,0,1,7.12,43.25Zm32.53,0a2.8,2.8,0,1,1,2.79-2.79A2.79,2.79,0,0,1,39.65,43.25Zm2.79-10.88A1.58,1.58,0,0,1,41,34.06H5.75a1.57,1.57,0,0,1-1.42-1.68V7.4A1.57,1.57,0,0,1,5.75,5.72H41A1.58,1.58,0,0,1,42.44,7.4Z" style="fill:#585858"/></g></g></svg>