<svg xmlns="http://www.w3.org/2000/svg" viewBox="0 0 47.33 68.61"><title>train</title><g id="Layer_2" data-name="Layer 2"><g id="Layer_1-2" data-name="Layer 1"><path d="M21.69,15.26a2.34,2.34,0,0,0,3.32,0l5.63-5.62a2.37,2.37,0,0,0,0-3.33L25,.69a2.34,2.34,0,0,0-3.32,0L16.07,6.31a2.35,2.35,0,0,0,0,3.33Zm1.66-12L28.06,8l-4.71,4.71L18.65,8Z" style="fill:#737373"/><path d="M46.71,23.7h0S44.36,19.35,24.42,19v0H21.79V19C2.89,19.51.61,23.7.61,23.7h0A2.8,2.8,0,0,0,0,25.44V65.77a2.85,2.85,0,0,0,2.83,2.84H44.5a2.84,2.84,0,0,0,2.83-2.83V25.45A2.82,2.82,0,0,0,46.71,23.7ZM11.29,63a4.12,4.12,0,1,1,4.12-4.12A4.11,4.11,0,0,1,11.29,63ZM22.16,45.7a1.42,1.42,0,0,1-1.41,1.42H8.39A1.42,1.42,0,0,1,7,45.7V29a1.41,1.41,0,0,1,1.41-1.42H20.75A1.41,1.41,0,0,1,22.16,29Zm3,0V29a1.42,1.42,0,0,1,1.42-1.42H38.93A1.41,1.41,0,0,1,40.35,29V45.7a1.42,1.42,0,0,1-1.42,1.42H26.58A1.43,1.43,0,0,1,25.16,45.7ZM36.46,63a4.13,4.13,0,1,1,4.12-4.13A4.13,4.13,0,0,1,36.46,63Z" style="fill:#737373"/></g></g></svg>