<svg xmlns="http://www.w3.org/2000/svg" viewBox="0 0 45.69 65.13"><title>tram</title><g id="Layer_2" data-name="Layer 2"><g id="Layer_2-2" data-name="Layer 2"><path d="M33.85,63.17c0,1.08.33,2,.73,2h1.8c.4,0,.72-.88.72-2V60.25H33.85Z" style="fill:#737373"/><path d="M45.06,14.39h0s-2.11-3.86-19-4.62V5h7.24a2.48,2.48,0,0,0,0-5H12.85a2.48,2.48,0,0,0,0,5h7.24V9.75C2.76,10.46.61,14.39.61,14.39h0A2.8,2.8,0,0,0,0,16.13V56.46A2.85,2.85,0,0,0,2.83,59.3h40a2.85,2.85,0,0,0,2.84-2.84V16.13A2.75,2.75,0,0,0,45.06,14.39ZM10.62,53.05a3.46,3.46,0,1,1,3.46-3.46A3.46,3.46,0,0,1,10.62,53.05Zm24.86,0a3.46,3.46,0,1,1,3.46-3.46A3.46,3.46,0,0,1,35.48,53.05ZM41.35,39.3a1.42,1.42,0,0,1-1.42,1.41H5.75A1.42,1.42,0,0,1,4.33,39.3V18.89a1.42,1.42,0,0,1,1.42-1.41H39.93a1.42,1.42,0,0,1,1.42,1.41Z" style="fill:#737373"/><path d="M9,63.17c0,1.08.33,2,.73,2h1.79c.4,0,.73-.88.73-2V60.25H9Z" style="fill:#737373"/></g></g></svg>